<svg xmlns="http://www.w3.org/2000/svg" width="192" height="192" viewBox="0 0 192 192">
  <defs>
    <linearGradient id="bg" x1="0" y1="0" x2="1" y2="1">
      <stop offset="0%" stop-color="#667eea"/>
      <stop offset="100%" stop-color="#764ba2"/>
    </linearGradient>
  </defs>
  <rect x="8" y="8" width="176" height="176" rx="34" fill="url(#bg)"/>
  <rect x="48" y="32" width="96" height="128" rx="12" fill="#ffffff"/>
  <rect x="62" y="56" width="68" height="8" rx="4" fill="#7c3aed" opacity="0.9"/>
  <rect x="62" y="74" width="52" height="6" rx="3" fill="#9ca3af"/>
  <rect x="62" y="90" width="52" height="6" rx="3" fill="#9ca3af"/>
  <rect x="62" y="106" width="52" height="6" rx="3" fill="#9ca3af"/>
  <rect x="62" y="124" width="68" height="22" rx="6" fill="#eef2ff"/>
  <path d="M91 141c-4.3 0-7-2.2-7.8-5.1h4.2c.7 1.3 2.1 2 3.8 2 2.4 0 3.8-1 3.8-2.4 0-1.7-2.1-2-4.4-2.4-3-.5-6.4-1.2-6.4-5 0-3.2 2.5-5.3 6.1-5.8v-2.7h2.3v2.7c3.7.5 5.9 2.8 6.2 5.4h-4.2c-.4-1.2-1.6-2-3.4-2-1.9 0-3.2 1-3.2 2.3 0 1.6 1.9 1.9 4.2 2.3 3.1.6 6.7 1.2 6.7 5.2 0 3.4-2.6 5.4-6.3 5.9v2.7h-2.3v-2.7z" fill="#4f46e5"/>
</svg>
