<svg xmlns="http://www.w3.org/2000/svg" width="512" height="512" viewBox="0 0 512 512">
  <defs>
    <linearGradient id="bg" x1="0" y1="0" x2="1" y2="1">
      <stop offset="0%" stop-color="#667eea"/>
      <stop offset="100%" stop-color="#764ba2"/>
    </linearGradient>
  </defs>
  <rect width="512" height="512" fill="url(#bg)"/>
  <rect x="126" y="84" width="260" height="344" rx="30" fill="#ffffff"/>
  <rect x="164" y="150" width="184" height="22" rx="11" fill="#7c3aed" opacity="0.9"/>
  <rect x="164" y="196" width="142" height="16" rx="8" fill="#9ca3af"/>
  <rect x="164" y="236" width="142" height="16" rx="8" fill="#9ca3af"/>
  <rect x="164" y="276" width="142" height="16" rx="8" fill="#9ca3af"/>
  <rect x="164" y="322" width="184" height="58" rx="15" fill="#eef2ff"/>
  <path d="M242 365c-11.5 0-18.7-5.8-20.9-13.8h11.3c1.8 3.5 5.7 5.4 10.4 5.4 6.3 0 10.2-2.6 10.2-6.6 0-4.6-5.6-5.5-11.8-6.6-8.2-1.4-17.4-3.2-17.4-13.7 0-8.8 6.9-14.4 16.7-15.8v-7.3h6.3v7.3c10.1 1.4 16.1 7.6 16.9 14.7h-11.4c-1-3.2-4.3-5.4-9.2-5.4-5.1 0-8.7 2.6-8.7 6.3 0 4.4 5.3 5.2 11.4 6.4 8.4 1.6 18.3 3.4 18.3 14.2 0 9.2-7.1 14.8-17.2 16v7.4h-6.3v-7.5z" fill="#4f46e5"/>
</svg>
